<svg xmlns="http://www.w3.org/2000/svg" viewBox="0 0 740 210" role="img" aria-labelledby="title description">
  <title id="title">100 Steps to Life</title>
  <desc id="description">An ascending geometric path leading to a golden guiding star, beside the words 100 Steps to Life.</desc>
  <g transform="translate(22 23)">
    <path fill="#102B3A" d="M0 143h28v-28h28V87h28V59h28V31h28v140H0z"/>
    <path fill="#0B6B69" d="M28 143h28v-28h28V87h28V59h28v112H28z" opacity=".98"/>
    <path fill="#F7F1E2" d="M41 132h16v-16h16v-16h16V84h16V68h16v-16h16v16h-16v16h-16v16H89v16H73v16H57v16H41z"/>
    <path fill="#D6A64B" d="m154 12 4.9 10.9L170 28l-11.1 5.1L154 44l-5.1-10.9L138 28l10.9-5.1z"/>
    <circle cx="154" cy="28" r="3.6" fill="#FFF9E8"/>
  </g>
  <g fill="#102B3A" font-family="Arial, Helvetica, sans-serif">
    <text x="205" y="103" font-size="63" font-weight="800" letter-spacing="-2.7">100 STEPS</text>
    <text x="210" y="148" fill="#0B6B69" font-size="25" font-weight="700" letter-spacing="9">TO LIFE</text>
  </g>
</svg>
