<svg xmlns="http://www.w3.org/2000/svg" viewBox="0 0 800 500">
<defs>
  <linearGradient id="pap" x1="0" y1="0" x2="0" y2="1">
    <stop offset="0%" stop-color="#f7eeda"/><stop offset="60%" stop-color="#f1e5cb"/><stop offset="100%" stop-color="#e7d9ba"/></linearGradient>
  <linearGradient id="sky" x1="0" y1="0" x2="0" y2="1">
    <stop offset="0%" stop-color="#88a8bd" stop-opacity=".34"/><stop offset="62%" stop-color="#e0cfa2" stop-opacity=".13"/>
    <stop offset="100%" stop-color="#e2b877" stop-opacity=".20"/></linearGradient>
  <linearGradient id="ga" x1="0.1" y1="0" x2="0.9" y2="1">
    <stop offset="0%" stop-color="#a3bfcb"/><stop offset="100%" stop-color="#5f8496"/></linearGradient>
  <linearGradient id="gb" x1="0" y1="0" x2="1" y2="0">
    <stop offset="0%" stop-color="#f3e8cf"/><stop offset="58%" stop-color="#e8dbbc"/><stop offset="100%" stop-color="#c9b691"/></linearGradient>
  <radialGradient id="glow" cx="0.5" cy="0.5" r="0.5">
    <stop offset="0%" stop-color="#f4d489" stop-opacity=".85"/><stop offset="100%" stop-color="#f4d489" stop-opacity="0"/></radialGradient>
  <pattern id="hx" width="5" height="5" patternTransform="rotate(38)" patternUnits="userSpaceOnUse">
    <line x1="0" y1="0" x2="0" y2="5" stroke="#2f3d2a" stroke-width="1" opacity=".40"/></pattern>
  <pattern id="hx2" width="3.2" height="3.2" patternTransform="rotate(-40)" patternUnits="userSpaceOnUse">
    <line x1="0" y1="0" x2="0" y2="3.2" stroke="#2f3d2a" stroke-width="1" opacity=".48"/></pattern>
  <pattern id="hf" width="8" height="8" patternTransform="rotate(15)" patternUnits="userSpaceOnUse">
    <line x1="0" y1="0" x2="0" y2="8" stroke="#2f3d2a" stroke-width=".8" opacity=".20"/></pattern>
  <filter id="grain"><feTurbulence type="fractalNoise" baseFrequency="0.75" numOctaves="4"/>
    <feColorMatrix type="saturate" values="0"/><feComponentTransfer><feFuncA type="linear" slope="0.13"/></feComponentTransfer></filter>
  <filter id="rough"><feTurbulence type="fractalNoise" baseFrequency="0.04" numOctaves="2" result="n"/>
    <feDisplacementMap in="SourceGraphic" in2="n" scale="2.2" xChannelSelector="R" yChannelSelector="G"/></filter>
</defs>
<rect width="800" height="500" fill="url(#pap)"/>
<rect width="800" height="500" fill="url(#sky)"/>
<g stroke="#2f3d2a" stroke-width=".9" opacity=".14" fill="none">
  <path d="M-10 84q200-24 400 0t420 0M-10 116q200-22 400 0t420 0M-10 148q200-20 400 0t422 0"/></g>
<g filter="url(#rough)">

  <path d="M0 330l96-56 84 44 96-60 104 58 118-44 132 62 170-46v60H0z" fill="#c8d1cf" stroke="#2f3d2a" stroke-width="1.8" opacity=".42"/>
  <path d="M92 384h8v-16h-8z" fill="#8a6f4c" stroke="#2f3d2a" stroke-width="2" /><path d="M74 378Q96 372 118 378L96 344z" fill="#7b9a6c" stroke="#2f3d2a" stroke-width="2.2" /><path d="M79 358Q96 352 113 358L96 324z" fill="#7b9a6c" stroke="#2f3d2a" stroke-width="2.2" /><path d="M84 338Q96 332 108 338L96 304z" fill="#7b9a6c" stroke="#2f3d2a" stroke-width="2.2" /><path d="M89 318Q96 312 103 318L96 284z" fill="#7b9a6c" stroke="#2f3d2a" stroke-width="2.2" /><path d="M96 377.6L118 377.6L96 288z" fill="url(#hx2)" stroke="none" opacity=".3"/><path d="M130 384h8v-16h-8z" fill="#8a6f4c" stroke="#2f3d2a" stroke-width="2" /><path d="M117 378Q134 372 151 378L134 354z" fill="#8fae7c" stroke="#2f3d2a" stroke-width="2.2" /><path d="M121 364Q134 358 147 364L134 340z" fill="#8fae7c" stroke="#2f3d2a" stroke-width="2.2" /><path d="M124 350Q134 344 144 350L134 326z" fill="#8fae7c" stroke="#2f3d2a" stroke-width="2.2" /><path d="M128 336Q134 330 140 336L134 312z" fill="#8fae7c" stroke="#2f3d2a" stroke-width="2.2" /><path d="M134 377.6L151 377.6L134 312z" fill="url(#hx2)" stroke="none" opacity=".3"/>
  <path d="M696 384h8v-16h-8z" fill="#8a6f4c" stroke="#2f3d2a" stroke-width="2" /><path d="M680 378Q700 372 720 378L700 349z" fill="#7b9a6c" stroke="#2f3d2a" stroke-width="2.2" /><path d="M684 361Q700 355 716 361L700 332z" fill="#7b9a6c" stroke="#2f3d2a" stroke-width="2.2" /><path d="M689 344Q700 338 711 344L700 315z" fill="#7b9a6c" stroke="#2f3d2a" stroke-width="2.2" /><path d="M693 327Q700 321 707 327L700 298z" fill="#7b9a6c" stroke="#2f3d2a" stroke-width="2.2" /><path d="M700 377.6L720 377.6L700 300z" fill="url(#hx2)" stroke="none" opacity=".3"/><path d="M737 384h10v-26h-10z" fill="#8a6f4c" stroke="#2f3d2a" stroke-width="2.2" /><path d="M742 366l-12-16M742 360l14-18" fill="none" stroke="#2f3d2a" stroke-width="2" opacity=".7" stroke-linecap="round"/><path d="M708 342.2q-6-24 15-32q17-19 37-3q20-7 17 19q12 20-12 31q-31 17-61 0z" fill="#8fae7c" stroke="#2f3d2a" stroke-width="2.6" /><path d="M708 342.2q-6-24 15-32q17-19 37-3q20-7 17 19q12 20-12 31q-31 17-61 0z" fill="url(#hx2)" stroke="none" opacity=".34"/><path d="M708 342.2q-6-24 15-32q17-19 37-3q20-7 17 19q12 20-12 31q-31 17-61 0z" fill="none" stroke="#2f3d2a" stroke-width="2.6" />

  <!-- Houses stacked on both banks, at different heights. -->
  <path d="M46 384v-96h92v96z" fill="#efe3c8" stroke="#2f3d2a" stroke-width="2.8" /><path d="M46 384v-96h92v96z" fill="url(#hf)" stroke="none" opacity=".5"/><path d="M46 384v-96h92v96z" fill="none" stroke="#2f3d2a" stroke-width="2.8" /><path d="M108 288v-22h14v22z" fill="#c9b691" stroke="#2f3d2a" stroke-width="2.4" /><path d="M36 288l56-32 56 32z" fill="#c9b691" stroke="#2f3d2a" stroke-width="2.8" /><path d="M44 274h96" fill="none" stroke="#2f3d2a" stroke-width="1.8" opacity=".5" stroke-linecap="round"/><path d="M63 306h20v20h-20z" fill="#e2b877" stroke="#2f3d2a" stroke-width="2.2" /><path d="M73 306v20M63 316h20" fill="none" stroke="#2f3d2a" stroke-width="1.8" opacity=".65" stroke-linecap="round"/><path d="M100 306h20v20h-20z" fill="#e2b877" stroke="#2f3d2a" stroke-width="2.2" /><path d="M110 306v20M100 316h20" fill="none" stroke="#2f3d2a" stroke-width="1.8" opacity=".65" stroke-linecap="round"/><path d="M79 384v-30a13 13 0 0 1 26 0v30z" fill="#3f5a3a" stroke="#2f3d2a" stroke-width="2.4" />
  <path d="M150 384v-68h66v68z" fill="#e7d9ba" stroke="#2f3d2a" stroke-width="2.8" /><path d="M150 384v-68h66v68z" fill="url(#hf)" stroke="none" opacity=".5"/><path d="M150 384v-68h66v68z" fill="none" stroke="#2f3d2a" stroke-width="2.8" /><path d="M140 316l43-24 43 24z" fill="#cbb08a" stroke="#2f3d2a" stroke-width="2.8" /><path d="M148 305h70" fill="none" stroke="#2f3d2a" stroke-width="1.8" opacity=".5" stroke-linecap="round"/><path d="M158 334h20v20h-20z" fill="#e2b877" stroke="#2f3d2a" stroke-width="2.2" /><path d="M168 334v20M158 344h20" fill="none" stroke="#2f3d2a" stroke-width="1.8" opacity=".65" stroke-linecap="round"/><path d="M187 334h20v20h-20z" fill="#e2b877" stroke="#2f3d2a" stroke-width="2.2" /><path d="M197 334v20M187 344h20" fill="none" stroke="#2f3d2a" stroke-width="1.8" opacity=".65" stroke-linecap="round"/>
  <path d="M618 384v-74h74v74z" fill="#e7d9ba" stroke="#2f3d2a" stroke-width="2.8" /><path d="M618 384v-74h74v74z" fill="url(#hf)" stroke="none" opacity=".5"/><path d="M618 384v-74h74v74z" fill="none" stroke="#2f3d2a" stroke-width="2.8" /><path d="M664 310v-22h14v22z" fill="#cbb08a" stroke="#2f3d2a" stroke-width="2.4" /><path d="M608 310l47-26 47 26z" fill="#cbb08a" stroke="#2f3d2a" stroke-width="2.8" /><path d="M616 298h78" fill="none" stroke="#2f3d2a" stroke-width="1.8" opacity=".5" stroke-linecap="round"/><path d="M629 328h20v20h-20z" fill="#e2b877" stroke="#2f3d2a" stroke-width="2.2" /><path d="M639 328v20M629 338h20" fill="none" stroke="#2f3d2a" stroke-width="1.8" opacity=".65" stroke-linecap="round"/><path d="M660 328h20v20h-20z" fill="#e2b877" stroke="#2f3d2a" stroke-width="2.2" /><path d="M670 328v20M660 338h20" fill="none" stroke="#2f3d2a" stroke-width="1.8" opacity=".65" stroke-linecap="round"/>
  <path d="M672 384v-108h96v108z" fill="#efe3c8" stroke="#2f3d2a" stroke-width="2.8" /><path d="M672 384v-108h96v108z" fill="url(#hf)" stroke="none" opacity=".5"/><path d="M672 384v-108h96v108z" fill="none" stroke="#2f3d2a" stroke-width="2.8" /><path d="M736 276v-22h14v22z" fill="#c9b691" stroke="#2f3d2a" stroke-width="2.4" /><path d="M662 276l58-34 58 34z" fill="#c9b691" stroke="#2f3d2a" stroke-width="2.8" /><path d="M670 261h100" fill="none" stroke="#2f3d2a" stroke-width="1.8" opacity=".5" stroke-linecap="round"/><path d="M690 294h20v20h-20z" fill="#e2b877" stroke="#2f3d2a" stroke-width="2.2" /><path d="M700 294v20M690 304h20" fill="none" stroke="#2f3d2a" stroke-width="1.8" opacity=".65" stroke-linecap="round"/><path d="M729 294h20v20h-20z" fill="#e2b877" stroke="#2f3d2a" stroke-width="2.2" /><path d="M739 294v20M729 304h20" fill="none" stroke="#2f3d2a" stroke-width="1.8" opacity=".65" stroke-linecap="round"/><path d="M707 384v-30a13 13 0 0 1 26 0v30z" fill="#3f5a3a" stroke="#2f3d2a" stroke-width="2.4" />
  <path d="M104 274q6-22 20-30M714 262q7-24 22-32" fill="none" stroke="#2f3d2a" stroke-width="2.2" opacity=".45" stroke-linecap="round"/>

  <!-- The bridge: three arches with voussoirs, a parapet, and a lamp. -->
  <path d="M60 384h680v30H60z" fill="#e8dbbc" stroke="#2f3d2a" stroke-width="3" /><path d="M60 384h680v30H60z" fill="url(#hf)" stroke="none" opacity=".5"/><path d="M60 384h680v30H60z" fill="none" stroke="#2f3d2a" stroke-width="3" />
  <path d="M60 384v-30h680v30z" fill="#efe3c8" stroke="#2f3d2a" stroke-width="2.8" />
  <path d="M96 354v-30M148 354v-30M200 354v-30M252 354v-30M304 354v-30M356 354v-30M408 354v-30M460 354v-30M512 354v-30M564 354v-30M616 354v-30M668 354v-30" fill="none" stroke="#2f3d2a" stroke-width="2.2" opacity=".6" stroke-linecap="round"/>
  <path d="M56 324h688v-14H56z" fill="#d9c7a2" stroke="#2f3d2a" stroke-width="2.6" />
  <path d="M170 414a80 80 0 0 1 160 0z" fill="#e6d6b2" stroke="#2f3d2a" stroke-width="2.8" /><path d="M170 414a80 80 0 0 1 160 0z" fill="url(#hx2)" stroke="none" opacity=".3"/><path d="M170 414a80 80 0 0 1 160 0z" fill="none" stroke="#2f3d2a" stroke-width="2.8" /><path d="M321 391L334 387" fill="none" stroke="#2f3d2a" stroke-width="2" opacity=".55" stroke-linecap="round"/><path d="M294 353L302 343" fill="none" stroke="#2f3d2a" stroke-width="2" opacity=".55" stroke-linecap="round"/><path d="M250 339L250 326" fill="none" stroke="#2f3d2a" stroke-width="2" opacity=".55" stroke-linecap="round"/><path d="M206 353L198 343" fill="none" stroke="#2f3d2a" stroke-width="2" opacity=".55" stroke-linecap="round"/><path d="M179 391L166 387" fill="none" stroke="#2f3d2a" stroke-width="2" opacity=".55" stroke-linecap="round"/><path d="M362 414a68 68 0 0 1 136 0z" fill="#e6d6b2" stroke="#2f3d2a" stroke-width="2.8" /><path d="M362 414a68 68 0 0 1 136 0z" fill="url(#hx2)" stroke="none" opacity=".3"/><path d="M362 414a68 68 0 0 1 136 0z" fill="none" stroke="#2f3d2a" stroke-width="2.8" /><path d="M490 395L502 391" fill="none" stroke="#2f3d2a" stroke-width="2" opacity=".55" stroke-linecap="round"/><path d="M467 363L475 353" fill="none" stroke="#2f3d2a" stroke-width="2" opacity=".55" stroke-linecap="round"/><path d="M430 351L430 338" fill="none" stroke="#2f3d2a" stroke-width="2" opacity=".55" stroke-linecap="round"/><path d="M393 363L385 353" fill="none" stroke="#2f3d2a" stroke-width="2" opacity=".55" stroke-linecap="round"/><path d="M370 395L358 391" fill="none" stroke="#2f3d2a" stroke-width="2" opacity=".55" stroke-linecap="round"/><path d="M540 414a56 56 0 0 1 112 0z" fill="#e6d6b2" stroke="#2f3d2a" stroke-width="2.8" /><path d="M540 414a56 56 0 0 1 112 0z" fill="url(#hx2)" stroke="none" opacity=".3"/><path d="M540 414a56 56 0 0 1 112 0z" fill="none" stroke="#2f3d2a" stroke-width="2.8" /><path d="M645 398L657 394" fill="none" stroke="#2f3d2a" stroke-width="2" opacity=".55" stroke-linecap="round"/><path d="M626 373L634 362" fill="none" stroke="#2f3d2a" stroke-width="2" opacity=".55" stroke-linecap="round"/><path d="M596 363L596 350" fill="none" stroke="#2f3d2a" stroke-width="2" opacity=".55" stroke-linecap="round"/><path d="M566 373L558 362" fill="none" stroke="#2f3d2a" stroke-width="2" opacity=".55" stroke-linecap="round"/><path d="M547 398L535 394" fill="none" stroke="#2f3d2a" stroke-width="2" opacity=".55" stroke-linecap="round"/>
  <circle cx="400" cy="312" r="34" fill="url(#glow)"/>
  <path d="M400 324v-40" fill="none" stroke="#2f3d2a" stroke-width="2.6" opacity=".85" stroke-linecap="round"/><path d="M388 284h24l-5 22h-14z" fill="#e2b877" stroke="#2f3d2a" stroke-width="2.4" /><path d="M386 284h28" fill="none" stroke="#2f3d2a" stroke-width="2.2" opacity=".8" stroke-linecap="round"/>

  <!-- Water, with the arches reflected under them. -->
  <path d="M0 424q200-14 400 0t400 0V500H0z" fill="url(#ga)" stroke="#2f3d2a" stroke-width="2.6" /><path d="M0 424q200-14 400 0t400 0V500H0z" fill="url(#hf)" stroke="none" opacity=".5"/><path d="M70 452q54-9 1080" fill="none" stroke="#2f3d2a" stroke-width="2" opacity=".45" stroke-linecap="round"/><path d="M300 470q58-9 1160" fill="none" stroke="#2f3d2a" stroke-width="2" opacity=".45" stroke-linecap="round"/><path d="M560 450q61-9 1220" fill="none" stroke="#2f3d2a" stroke-width="2" opacity=".45" stroke-linecap="round"/>
  <path d="M196 436h110" fill="none" stroke="#2f3d2a" stroke-width="2" opacity="0.4" stroke-linecap="round"/><path d="M196 445h103" fill="none" stroke="#2f3d2a" stroke-width="2" opacity="0.33" stroke-linecap="round"/><path d="M196 454h96" fill="none" stroke="#2f3d2a" stroke-width="2" opacity="0.26" stroke-linecap="round"/><path d="M196 463h89" fill="none" stroke="#2f3d2a" stroke-width="2" opacity="0.19" stroke-linecap="round"/><path d="M384 436h92" fill="none" stroke="#2f3d2a" stroke-width="2" opacity="0.4" stroke-linecap="round"/><path d="M384 445h85" fill="none" stroke="#2f3d2a" stroke-width="2" opacity="0.33" stroke-linecap="round"/><path d="M384 454h78" fill="none" stroke="#2f3d2a" stroke-width="2" opacity="0.26" stroke-linecap="round"/><path d="M384 463h71" fill="none" stroke="#2f3d2a" stroke-width="2" opacity="0.19" stroke-linecap="round"/><path d="M552 436h78" fill="none" stroke="#2f3d2a" stroke-width="2" opacity="0.4" stroke-linecap="round"/><path d="M552 445h71" fill="none" stroke="#2f3d2a" stroke-width="2" opacity="0.33" stroke-linecap="round"/><path d="M552 454h64" fill="none" stroke="#2f3d2a" stroke-width="2" opacity="0.26" stroke-linecap="round"/><path d="M552 463h57" fill="none" stroke="#2f3d2a" stroke-width="2" opacity="0.19" stroke-linecap="round"/>

  <!-- A moored boat under the near arch. -->
  <g><path d="M300 448q26-20 74-20t74 20q-30 12-74 12t-74-12z" fill="#dfd0ab" stroke="#2f3d2a" stroke-width="2.6" />
     <path d="M316 442q32-10 64-10t62 10" fill="none" stroke="#2f3d2a" stroke-width="2" opacity=".5" stroke-linecap="round"/>
     <path d="M374 428v-58" fill="none" stroke="#2f3d2a" stroke-width="2.6" /><path d="M374 380h26" fill="none" stroke="#2f3d2a" stroke-width="2.2" opacity=".6" stroke-linecap="round"/></g>
  <path d="M40 474q-2-14 -9-18M40 474q0-16 2-22M40 474q3-13 10-17" fill="none" stroke="#2f3d2a" stroke-width="2.4" opacity=".8" stroke-linecap="round"/><path d="M766 470q-2-13 -9-17M766 470q0-15 2-21M766 470q3-12 10-16" fill="none" stroke="#2f3d2a" stroke-width="2.4" opacity=".8" stroke-linecap="round"/>
  <path d="M197 116q4-5 9 0q4-5 9 0" fill="none" stroke="#2f3d2a" stroke-width="2" opacity=".5" stroke-linecap="round"/><path d="M241 96q4-5 9 0q4-5 9 0" fill="none" stroke="#2f3d2a" stroke-width="2" opacity=".5" stroke-linecap="round"/><path d="M283 126q4-5 9 0q4-5 9 0" fill="none" stroke="#2f3d2a" stroke-width="2" opacity=".5" stroke-linecap="round"/><path d="M547 104q4-5 9 0q4-5 9 0" fill="none" stroke="#2f3d2a" stroke-width="2" opacity=".5" stroke-linecap="round"/>
</g>
<rect width="800" height="500" filter="url(#grain)" opacity=".75"/>
</svg>
