<svg xmlns="http://www.w3.org/2000/svg" viewBox="0 0 800 500">
<defs>
  <linearGradient id="pap" x1="0" y1="0" x2="0" y2="1">
    <stop offset="0%" stop-color="#f7eeda"/><stop offset="60%" stop-color="#f1e5cb"/><stop offset="100%" stop-color="#e7d9ba"/></linearGradient>
  <linearGradient id="sky" x1="0" y1="0" x2="0" y2="1">
    <stop offset="0%" stop-color="#8aa6bb" stop-opacity=".34"/><stop offset="62%" stop-color="#e3cf9f" stop-opacity=".13"/>
    <stop offset="100%" stop-color="#e2b877" stop-opacity=".20"/></linearGradient>
  <linearGradient id="ga" x1="0.1" y1="0" x2="0.9" y2="1">
    <stop offset="0%" stop-color="#a8c2cf"/><stop offset="100%" stop-color="#5f8496"/></linearGradient>
  <linearGradient id="gb" x1="0" y1="0" x2="1" y2="0">
    <stop offset="0%" stop-color="#f3e8cf"/><stop offset="58%" stop-color="#e8dbbc"/><stop offset="100%" stop-color="#c9b691"/></linearGradient>
  <pattern id="hx" width="5" height="5" patternTransform="rotate(38)" patternUnits="userSpaceOnUse">
    <line x1="0" y1="0" x2="0" y2="5" stroke="#2f3d2a" stroke-width="1" opacity=".40"/></pattern>
  <pattern id="hx2" width="3.2" height="3.2" patternTransform="rotate(-40)" patternUnits="userSpaceOnUse">
    <line x1="0" y1="0" x2="0" y2="3.2" stroke="#2f3d2a" stroke-width="1" opacity=".48"/></pattern>
  <pattern id="hf" width="8" height="8" patternTransform="rotate(15)" patternUnits="userSpaceOnUse">
    <line x1="0" y1="0" x2="0" y2="8" stroke="#2f3d2a" stroke-width=".8" opacity=".20"/></pattern>
  <filter id="grain"><feTurbulence type="fractalNoise" baseFrequency="0.75" numOctaves="4"/>
    <feColorMatrix type="saturate" values="0"/><feComponentTransfer><feFuncA type="linear" slope="0.13"/></feComponentTransfer></filter>
  <filter id="rough"><feTurbulence type="fractalNoise" baseFrequency="0.04" numOctaves="2" result="n"/>
    <feDisplacementMap in="SourceGraphic" in2="n" scale="2.4" xChannelSelector="R" yChannelSelector="G"/></filter>
</defs>
<rect width="800" height="500" fill="url(#pap)"/>
<rect width="800" height="500" fill="url(#sky)"/>
<g stroke="#2f3d2a" stroke-width=".9" opacity=".15" fill="none">
  <path d="M-10 96q200-26 400 0t420 0M-10 130q200-24 400 0t420 0M-10 164q200-22 400 0t422 0"/></g>
<g filter="url(#rough)">
<path d="M0 420q200-12 400 0t400 0V500H0z" fill="url(#ga)" stroke="#2f3d2a" stroke-width="2.6" />
 <path d="M0 420q200-12 400 0t400 0V500H0z" fill="url(#hf)" stroke="none" opacity=".5"/>
 <g stroke="#2f3d2a" stroke-width="2" opacity=".5" fill="none"><path d="M80 450q60-10 110 0M420 466q70-10 130 0M620 448q70-10 130 0"/></g>
 <path d="M60 420V366h680v54z" fill="#e8dbbc" stroke="#2f3d2a" stroke-width="3.2" /><path d="M60 420V366h680v54z" fill="url(#hf)" stroke="none" opacity=".55"/><path d="M60 420V366h680v54z" fill="none" stroke="#2f3d2a" stroke-width="3.2" />
 <g stroke="#2f3d2a" stroke-width="2.2" fill="none" opacity=".7"><path d="M140 366v54M220 366v54M300 366v54M500 366v54M580 366v54M660 366v54"/></g>
 <g><path d="M360 366V180h80v186z" fill="#efe3c8" stroke="#2f3d2a" stroke-width="3.2" /><path d="M360 366V180h80v186z" fill="url(#hx2)" stroke="none" opacity=".42"/><path d="M360 366V180h80v186z" fill="none" stroke="#2f3d2a" stroke-width="3.2" />
    <path d="M348 180h104v-18H348z" fill="#c9b691" stroke="#2f3d2a" stroke-width="2.8" />
    <path d="M366 162V132h68v30z" fill="#e2b877" stroke="#2f3d2a" stroke-width="3.2" /><path d="M366 162V132h68v30z" fill="none" stroke="#2f3d2a" stroke-width="3.2" />
    <path d="M400 132v-20" fill="none" stroke="#2f3d2a" stroke-width="2.8" />
    <g stroke="#2f3d2a" stroke-width="2.2" fill="none" opacity=".7"><path d="M360 240h80M360 300h80"/></g>
    <path d="M382 366v-44h36v44z" fill="#3f5a3a" stroke="#2f3d2a" stroke-width="2.6" /></g>
 <g><path d="M180 366v-56h44v56z" fill="#e7d9ba" stroke="#2f3d2a" stroke-width="2.8" /><path d="M174 310l28-24 28 24z" fill="#c9b691" stroke="#2f3d2a" stroke-width="2.6" /></g>
 <g><path d="M600 366v-46h40v46z" fill="#e7d9ba" stroke="#2f3d2a" stroke-width="2.8" /><path d="M594 320l26-22 26 22z" fill="#c9b691" stroke="#2f3d2a" stroke-width="2.6" /></g>
 <path d="M50 486h700" stroke="#2f3d2a" stroke-width="2.4" opacity=".5"/>
</g>
<rect width="800" height="500" filter="url(#grain)" opacity=".75"/>
</svg>
