<svg xmlns="http://www.w3.org/2000/svg" viewBox="0 0 800 500">
<defs>
  <linearGradient id="pap" x1="0" y1="0" x2="0" y2="1">
    <stop offset="0%" stop-color="#f7eeda"/><stop offset="60%" stop-color="#f1e5cb"/><stop offset="100%" stop-color="#e7d9ba"/></linearGradient>
  <linearGradient id="sky" x1="0" y1="0" x2="0" y2="1">
    <stop offset="0%" stop-color="#8fa8bd" stop-opacity=".34"/><stop offset="62%" stop-color="#e2d3a6" stop-opacity=".13"/>
    <stop offset="100%" stop-color="#e2b877" stop-opacity=".20"/></linearGradient>
  <linearGradient id="ga" x1="0.1" y1="0" x2="0.9" y2="1">
    <stop offset="0%" stop-color="#b6b49a"/><stop offset="100%" stop-color="#6b6a56"/></linearGradient>
  <linearGradient id="gb" x1="0" y1="0" x2="1" y2="0">
    <stop offset="0%" stop-color="#f3e8cf"/><stop offset="58%" stop-color="#e8dbbc"/><stop offset="100%" stop-color="#c9b691"/></linearGradient>
  <pattern id="hx" width="5" height="5" patternTransform="rotate(38)" patternUnits="userSpaceOnUse">
    <line x1="0" y1="0" x2="0" y2="5" stroke="#2f3d2a" stroke-width="1" opacity=".40"/></pattern>
  <pattern id="hx2" width="3.2" height="3.2" patternTransform="rotate(-40)" patternUnits="userSpaceOnUse">
    <line x1="0" y1="0" x2="0" y2="3.2" stroke="#2f3d2a" stroke-width="1" opacity=".48"/></pattern>
  <pattern id="hf" width="8" height="8" patternTransform="rotate(15)" patternUnits="userSpaceOnUse">
    <line x1="0" y1="0" x2="0" y2="8" stroke="#2f3d2a" stroke-width=".8" opacity=".20"/></pattern>
  <filter id="grain"><feTurbulence type="fractalNoise" baseFrequency="0.75" numOctaves="4"/>
    <feColorMatrix type="saturate" values="0"/><feComponentTransfer><feFuncA type="linear" slope="0.13"/></feComponentTransfer></filter>
  <filter id="rough"><feTurbulence type="fractalNoise" baseFrequency="0.04" numOctaves="2" result="n"/>
    <feDisplacementMap in="SourceGraphic" in2="n" scale="2.4" xChannelSelector="R" yChannelSelector="G"/></filter>
</defs>
<rect width="800" height="500" fill="url(#pap)"/>
<rect width="800" height="500" fill="url(#sky)"/>
<g stroke="#2f3d2a" stroke-width=".9" opacity=".15" fill="none">
  <path d="M-10 96q200-26 400 0t420 0M-10 130q200-24 400 0t420 0M-10 164q200-22 400 0t422 0"/></g>
<g filter="url(#rough)">
<path d="M0 470l160-140 140 100 140-140 160 170 200-100v140z" fill="#e5dabd" stroke="#2f3d2a" stroke-width="2.6" />
 <path d="M0 470l160-140 140 100 140-140 160 170 200-100v140z" fill="url(#hf)" stroke="none" opacity=".5"/>
 <path d="M0 470l200-230 130 120 140-190 150 210 180-90v180z" fill="url(#gb)" stroke="#2f3d2a" stroke-width="3.2" /><path d="M0 470l200-230 130 120 140-190 150 210 180-90v180z" fill="url(#hx2)" stroke="none" opacity=".42"/>
 <g stroke="#2f3d2a" stroke-width="2" fill="none" opacity=".6">
   <path d="M200 250l40 70M220 290l-50 70M470 210l50 80M490 280l-40 70M650 300l50 60"/></g>
 <g><path d="M456 200h58v-16h-58zM462 184h46v-16h-46zM468 168h34v-16h-34zM476 152h18v-16h-18z" fill="#dfd0ab" stroke="#2f3d2a" stroke-width="2.8" /></g>
 <g stroke="#2f3d2a" stroke-width="2.4" fill="none" opacity=".55" stroke-dasharray="5 16" stroke-linecap="round">
   <path d="M40 470q180-40 300-120t150-140"/></g>
 <g><path d="M120 470c-16 0-22-18-22-38 0-24 10-46 22-46s22 22 22 46c0 20-6 38-22 38z" fill="#5c7a4f" stroke="#2f3d2a" stroke-width="2.6" /></g>
 <path d="M50 486h700" stroke="#2f3d2a" stroke-width="2.4" opacity=".5"/>
</g>
<rect width="800" height="500" filter="url(#grain)" opacity=".75"/>
</svg>
