<svg xmlns="http://www.w3.org/2000/svg" viewBox="0 0 800 500">
<defs>
  <linearGradient id="pap" x1="0" y1="0" x2="0" y2="1">
    <stop offset="0%" stop-color="#f7eeda"/><stop offset="60%" stop-color="#f1e5cb"/><stop offset="100%" stop-color="#e7d9ba"/></linearGradient>
  <linearGradient id="sky" x1="0" y1="0" x2="0" y2="1">
    <stop offset="0%" stop-color="#9aa8b4" stop-opacity=".34"/><stop offset="62%" stop-color="#e0cda0" stop-opacity=".13"/>
    <stop offset="100%" stop-color="#d99a5e" stop-opacity=".20"/></linearGradient>
  <linearGradient id="ga" x1="0.1" y1="0" x2="0.9" y2="1">
    <stop offset="0%" stop-color="#c9a878"/><stop offset="100%" stop-color="#8a6a4a"/></linearGradient>
  <linearGradient id="gb" x1="0" y1="0" x2="1" y2="0">
    <stop offset="0%" stop-color="#f3e8cf"/><stop offset="58%" stop-color="#e8dbbc"/><stop offset="100%" stop-color="#c9b691"/></linearGradient>
  <pattern id="hx" width="5" height="5" patternTransform="rotate(38)" patternUnits="userSpaceOnUse">
    <line x1="0" y1="0" x2="0" y2="5" stroke="#2f3d2a" stroke-width="1" opacity=".40"/></pattern>
  <pattern id="hx2" width="3.2" height="3.2" patternTransform="rotate(-40)" patternUnits="userSpaceOnUse">
    <line x1="0" y1="0" x2="0" y2="3.2" stroke="#2f3d2a" stroke-width="1" opacity=".48"/></pattern>
  <pattern id="hf" width="8" height="8" patternTransform="rotate(15)" patternUnits="userSpaceOnUse">
    <line x1="0" y1="0" x2="0" y2="8" stroke="#2f3d2a" stroke-width=".8" opacity=".20"/></pattern>
  <filter id="grain"><feTurbulence type="fractalNoise" baseFrequency="0.75" numOctaves="4"/>
    <feColorMatrix type="saturate" values="0"/><feComponentTransfer><feFuncA type="linear" slope="0.13"/></feComponentTransfer></filter>
  <filter id="rough"><feTurbulence type="fractalNoise" baseFrequency="0.04" numOctaves="2" result="n"/>
    <feDisplacementMap in="SourceGraphic" in2="n" scale="2.4" xChannelSelector="R" yChannelSelector="G"/></filter>
</defs>
<rect width="800" height="500" fill="url(#pap)"/>
<rect width="800" height="500" fill="url(#sky)"/>
<g stroke="#2f3d2a" stroke-width=".9" opacity=".15" fill="none">
  <path d="M-10 96q200-26 400 0t420 0M-10 130q200-24 400 0t420 0M-10 164q200-22 400 0t422 0"/></g>
<g filter="url(#rough)">
<path d="M0 452h800V500H0z" fill="#d9c7a2" stroke="#2f3d2a" stroke-width="2.6" /><path d="M0 452h800V500H0z" fill="url(#hf)" stroke="none" opacity=".5"/>
 <g><path d="M120 452V276h300v176z" fill="#efe3c8" stroke="#2f3d2a" stroke-width="3.2" /><path d="M120 452V276h300v176z" fill="url(#hf)" stroke="none" opacity=".55"/><path d="M120 452V276h300v176z" fill="none" stroke="#2f3d2a" stroke-width="3.2" />
    <path d="M104 276l166-70 166 70z" fill="#c9b691" stroke="#2f3d2a" stroke-width="3" />
    <g stroke="#2f3d2a" stroke-width="2.4" fill="none" opacity=".75"><path d="M270 206v70M160 452v-70h60v70M300 330h80v50h-80z"/></g></g>
 <g><path d="M520 452V180h22v272z" fill="#c9b691" stroke="#2f3d2a" stroke-width="3.2" /><path d="M520 180h180v20H520z" fill="#c9b691" stroke="#2f3d2a" stroke-width="3.2" />
    <path d="M690 200v70" fill="none" stroke="#2f3d2a" stroke-width="2.8" /><path d="M672 270h36v26h-36z" fill="#e2b877" stroke="#2f3d2a" stroke-width="2.6" />
    <g stroke="#2f3d2a" stroke-width="2.2" fill="none" opacity=".7"><path d="M542 220l150-32M542 260l150-58"/></g></g>
 <g><path d="M470 452q40-34 110-34t110 34q-46 18-110 18t-110-18z" fill="#dfd0ab" stroke="#2f3d2a" stroke-width="3.2" />
    <path d="M470 452q40-34 110-34t110 34q-46 18-110 18t-110-18z" fill="url(#hx2)" stroke="none" opacity=".5"/>
    <path d="M470 452q40-34 110-34t110 34q-46 18-110 18t-110-18z" fill="none" stroke="#2f3d2a" stroke-width="3.2" />
    <g stroke="#2f3d2a" stroke-width="2.2" fill="none" opacity=".7"><path d="M500 430h160M520 442h120"/></g></g>
 <g><path d="M60 452v-40h40v40zM104 452v-30h40v30z" fill="#c9a878" stroke="#2f3d2a" stroke-width="2.6" /></g>
 <path d="M50 486h700" stroke="#2f3d2a" stroke-width="2.4" opacity=".5"/>
</g>
<rect width="800" height="500" filter="url(#grain)" opacity=".75"/>
</svg>
