<svg xmlns="http://www.w3.org/2000/svg" viewBox="0 0 800 500">
<defs>
  <linearGradient id="pap" x1="0" y1="0" x2="0" y2="1">
    <stop offset="0%" stop-color="#f7eeda"/><stop offset="60%" stop-color="#f1e5cb"/><stop offset="100%" stop-color="#e7d9ba"/></linearGradient>
  <linearGradient id="sky" x1="0" y1="0" x2="0" y2="1">
    <stop offset="0%" stop-color="#8b9c86" stop-opacity=".34"/><stop offset="62%" stop-color="#ddd2a4" stop-opacity=".13"/>
    <stop offset="100%" stop-color="#e2b877" stop-opacity=".20"/></linearGradient>
  <linearGradient id="ga" x1="0.1" y1="0" x2="0.9" y2="1">
    <stop offset="0%" stop-color="#a8b894"/><stop offset="100%" stop-color="#5d6f52"/></linearGradient>
  <linearGradient id="gb" x1="0" y1="0" x2="1" y2="0">
    <stop offset="0%" stop-color="#f3e8cf"/><stop offset="58%" stop-color="#e8dbbc"/><stop offset="100%" stop-color="#c9b691"/></linearGradient>
  <pattern id="hx" width="5" height="5" patternTransform="rotate(38)" patternUnits="userSpaceOnUse">
    <line x1="0" y1="0" x2="0" y2="5" stroke="#2f3d2a" stroke-width="1" opacity=".40"/></pattern>
  <pattern id="hx2" width="3.2" height="3.2" patternTransform="rotate(-40)" patternUnits="userSpaceOnUse">
    <line x1="0" y1="0" x2="0" y2="3.2" stroke="#2f3d2a" stroke-width="1" opacity=".48"/></pattern>
  <pattern id="hf" width="8" height="8" patternTransform="rotate(15)" patternUnits="userSpaceOnUse">
    <line x1="0" y1="0" x2="0" y2="8" stroke="#2f3d2a" stroke-width=".8" opacity=".20"/></pattern>
  <filter id="grain"><feTurbulence type="fractalNoise" baseFrequency="0.75" numOctaves="4"/>
    <feColorMatrix type="saturate" values="0"/><feComponentTransfer><feFuncA type="linear" slope="0.13"/></feComponentTransfer></filter>
  <filter id="rough"><feTurbulence type="fractalNoise" baseFrequency="0.04" numOctaves="2" result="n"/>
    <feDisplacementMap in="SourceGraphic" in2="n" scale="2.4" xChannelSelector="R" yChannelSelector="G"/></filter>
</defs>
<rect width="800" height="500" fill="url(#pap)"/>
<rect width="800" height="500" fill="url(#sky)"/>
<g stroke="#2f3d2a" stroke-width=".9" opacity=".15" fill="none">
  <path d="M-10 96q200-26 400 0t420 0M-10 130q200-24 400 0t420 0M-10 164q200-22 400 0t422 0"/></g>
<g filter="url(#rough)">
<path d="M0 440q160-70 400-40t400-30V500H0z" fill="#e2dcb4" stroke="#2f3d2a" stroke-width="2.6" />
 <path d="M0 440q160-70 400-40t400-30V500H0z" fill="url(#hf)" stroke="none" opacity=".45"/>
 <g stroke="#2f3d2a" stroke-width="2.2" fill="none" opacity=".55">
   <path d="M0 470q200-56 400-30t400-26M120 500q160-40 300-22"/></g>
 <g><path d="M300 440V270h200v170z" fill="#efe3c8" stroke="#2f3d2a" stroke-width="3.2" /><path d="M300 440V270h200v170z" fill="url(#hf)" stroke="none" opacity=".55"/><path d="M300 440V270h200v170z" fill="none" stroke="#2f3d2a" stroke-width="3.2" />
    <path d="M286 270l114-70 114 70z" fill="#c9b691" stroke="#2f3d2a" stroke-width="3" />
    <path d="M366 440v-84a34 34 0 0 1 68 0v84z" fill="#3f5a3a" stroke="#2f3d2a" stroke-width="3.2" /><path d="M366 440v-84a34 34 0 0 1 68 0v84z" fill="none" stroke="#2f3d2a" stroke-width="3.2" />
    <g stroke="#2f3d2a" stroke-width="2.4" fill="none" opacity=".7"><path d="M300 330h200M330 270v170M470 270v170"/></g>
    <path d="M400 200v-26" fill="none" stroke="#2f3d2a" stroke-width="2.8" /><path d="M400 174l30 14-30 14z" fill="#e2b877" stroke="#2f3d2a" stroke-width="2.6" /></g>
 <g><path d="M140 440V330h80v110z" fill="#e7d9ba" stroke="#2f3d2a" stroke-width="2.8" /><path d="M132 330l48-36 48 36z" fill="#c9b691" stroke="#2f3d2a" stroke-width="2.6" />
    <path d="M580 440V346h76v94z" fill="#e7d9ba" stroke="#2f3d2a" stroke-width="2.8" /><path d="M572 346l46-34 46 34z" fill="#c9b691" stroke="#2f3d2a" stroke-width="2.6" /></g>
 <g><path d="M232 440q22-30 52-30t52 30z" fill="#c9b691" stroke="#2f3d2a" stroke-width="2.6" />
    <path d="M470 440q20-26 46-26t46 26z" fill="#c9b691" stroke="#2f3d2a" stroke-width="2.6" /></g>
 <path d="M50 486h700" stroke="#2f3d2a" stroke-width="2.4" opacity=".5"/>
</g>
<rect width="800" height="500" filter="url(#grain)" opacity=".75"/>
</svg>
