<svg xmlns="http://www.w3.org/2000/svg" viewBox="0 0 1200 675" role="img">
  <rect width="1200" height="675" fill="#b9dce2"/>
  <path d="M0 325 C170 280 250 355 410 312 C590 264 745 352 920 290 C1040 250 1124 280 1200 247 V675 H0Z" fill="#5d9aa0"/>
  <path d="M0 470 C155 400 270 455 405 398 C575 325 735 454 880 388 C1022 324 1115 360 1200 326 V675 H0Z" fill="#e8d1a4"/>
  <path d="M-30 590 C155 450 295 595 470 494 C655 387 750 580 905 467 C1030 382 1116 430 1230 335" fill="none" stroke="#d6a64b" stroke-width="12" stroke-linecap="round" stroke-dasharray="4 25" opacity=".9"/>
  <path d="M0 613 C198 483 336 591 489 521 C660 442 752 607 919 494 C1046 408 1110 454 1200 391" fill="none" stroke="#745b3b" stroke-width="34" stroke-linecap="round" opacity=".24"/>
  <g fill="#f7f1e2" opacity=".7"><circle cx="130" cy="185" r="4"/><circle cx="270" cy="131" r="3"/><circle cx="880" cy="139" r="4"/><circle cx="1060" cy="210" r="3"/></g>
  <circle cx="948" cy="135" r="67" fill="#f4d77e" opacity=".9"/><path d="M65 503 C218 410 325 470 452 422" fill="none" stroke="#f7f1e2" stroke-width="8" opacity=".75"/><path d="M378 385v-98m-34 25h70m-35-26v28" stroke="#102b3a" stroke-width="14" stroke-linecap="round"/>
  <circle cx="730" cy="494" r="17" fill="#d6a64b"/><circle cx="730" cy="494" r="8" fill="#fff9e8"/>
</svg>